<svg width="24" height="24" viewBox="0 0 24 24" fill="none" xmlns="http://www.w3.org/2000/svg">
<path d="M12.7071 15.293L18.0001 10M12.7071 15.293C12.5195 15.1055 12.2653 15 12.0001 15C11.7348 15 11.4805 15.1054 11.2929 15.2929C11.1054 15.4804 11.0001 15.7348 11.0001 16C11.0001 16.2652 11.1054 16.5196 11.2929 16.7071C11.4805 16.8946 11.7348 17 12.0001 17C12.2653 17 12.5196 16.8946 12.7072 16.7071C12.8947 16.5196 13.0001 16.2652 13.0001 16C13.0001 15.7348 12.8946 15.4805 12.7071 15.293ZM19.8061 20C20.9811 18.558 21.72 16.8105 21.9361 14.963C22.15 13.1184 21.83 11.2511 21.0141 9.583C20.1928 7.90503 18.9135 6.49366 17.3241 5.512C15.7248 4.52211 13.8809 3.99845 12.0001 4C10.1161 4 8.27006 4.524 6.67606 5.512C5.08673 6.49339 3.80747 7.90439 2.98606 9.582C2.17042 11.2502 1.85076 13.1175 2.06506 14.962C2.28061 16.8098 3.01922 18.5576 4.19406 20H19.8061Z" stroke="#A78BFA" stroke-width="1.5" stroke-linecap="round" stroke-linejoin="round"/>
</svg>
